# xmcd
#
# Track frame offsets: 
#        150
#        20125
#        41804
#        58311
#        77191
#        92748
#        111636
#        132468
#        154035
#        168066
#
# Disc length: 2472 seconds
#
# Revision: 2
# Processed by: cddbd v1.5.2PL0 Copyright (c) Steve Scherf et al.
# Submitted via: ExactAudioCopy v0.99pb4
#
DISCID=8b09a60a
DTITLE=Akina Nakamori - 05 New Akina Etranger
DYEAR=1983
DGENRE=Pop
TTITLE0=Sayonara ne
TTITLE1=Venus Tanjo
TTITLE2=Sukoshidake Scandal
TTITLE3=Kanshokiko
TTITLE4=Renaissance-Yasashisa de kaete-
TTITLE5=Mon Amor (Glass ni Hanbun no Tasogare)
TTITLE6=Stripe
TTITLE7=Wakarabairo no Love Song
TTITLE8=Tokini wa Ennui
TTITLE9=Kakugo no Aki
EXTD=
EXTT0=
EXTT1=
EXTT2=
EXTT3=
EXTT4=
EXTT5=
EXTT6=
EXTT7=
EXTT8=
EXTT9=
PLAYORDER=
